<svg version="1.1" viewBox="0.0 0.0 100.0 100.0" fill="none" stroke="none" stroke-linecap="square" stroke-miterlimit="10" xmlns:xlink="http://www.w3.org/1999/xlink" xmlns="http://www.w3.org/2000/svg"><clipPath id="p.0"><path d="m0 0l100.0 0l0 100.0l-100.0 0l0 -100.0z" clip-rule="nonzero"/></clipPath><g clip-path="url(#p.0)"><path fill="#000000" fill-opacity="0.0" d="m0 0l100.0 0l0 100.0l-100.0 0z" fill-rule="evenodd"/><path fill="#000000" fill-opacity="0.0" d="m8.406842 -22.469105l37.54331 0l0 134.11023l-37.54331 0z" fill-rule="evenodd"/><path fill="#20124d" d="m34.40684 92.055885q-2.03125 0.328125 -3.734373 0.375q-1.703125 0.0625 -5.015625 -0.796875q-1.703125 -0.53125 -2.40625 -1.28125q-0.6875 -0.75 -2.28125 -2.765625q-1.171875 -1.703125 -1.65625 -3.15625q-0.484375 -1.4375 -0.171875 -2.234375q0.328125 -0.796875 1.390625 -0.484375q0.328125 0.109375 1.015625 0.6875q0.703125 0.59375 1.34375 1.453125q1.484375 1.59375 3.609375 2.125q2.140625 0.546875 5.671873 0.109375q1.484375 -0.3125 3.609375 -0.90625q2.140625 -0.578125 4.15625 -1.4375q2.03125 -0.859375 3.21875 -1.703125q5.640625 -3.84375 9.046875 -6.078125q3.421875 -2.25 3.421875 -2.25q0.21875 -0.421875 0.796875 -0.6875q0.59375 -0.265625 1.453125 -0.59375q0.640625 -0.625 2.078125 -2.015625q1.4375 -1.390625 2.765625 -2.765625q1.3281288 -1.390625 1.6562538 -1.609375q0.21875 -0.96875 0.421875 -1.546875q0.21875 -0.5937462 0.21875 -1.2343712q0.859375 -0.84375 2.296875 -3.5625q1.4375 -2.71875 2.921875 -6.078125q1.5 -3.359375 2.140625 -6.140625q1.484375 -7.46875 0.734375 -12.578125q-0.734375 -5.125 -3.03125 -8.796875q-2.296875 -3.6875 -5.703125 -6.5625q-1.1718788 -0.96875 -3.2500038 -2.078125q-2.078125 -1.125 -4.328125 -1.96875q-2.234375 -0.859375 -3.890625 -1.390625q-1.65625 -0.53125 -1.96875 -0.4375q-0.421875 0.109375 -1.765625 3.375q-1.328125 3.25 -3.140625 8.265625q-1.8125 5.0 -3.890625 10.65625q-2.078125 5.65625 -3.890625 10.671875q-0.640625 2.015625 -1.390625 4.265625q-0.75 2.234375 -1.28125 3.890625q-0.53125 1.65625 -0.53125 2.1875q-1.171875 1.8125 -1.875 4.796875q-0.6875 2.9843712 -1.5468731 9.921871q-0.953125 3.625 -1.390625 5.5q-0.421875 1.859375 -0.84375 1.75q0 0 -0.0625 0.0625q-0.046875 0.046875 -0.359375 0.359375q0 0.640625 -0.859375 0.640625q-0.84375 0 -1.96875 -0.46875q-1.125 -0.484375 -1.765625 -1.125q-0.3125 -1.171875 -0.375 -2.234375q-0.046875 -1.078125 0.8125 -4.171875q0.53125 -2.03125 1.328125 -4.953125q0.796875 -2.9375 1.75 -6.078121q0.96875 -3.15625 1.8125 -5.8125q0.859375 -2.671875 1.28125 -4.0625q0.75 -1.8125 2.140623 -6.828125q0.859375 -2.765625 1.765625 -5.53125q0.90625 -2.78125 1.75 -4.96875q0.859375 -2.1875 1.171875 -2.828125q0.53125 -1.390625 1.59375 -4.6875q1.078125 -3.3125 2.78125 -7.359375l0.75 -3.515625l-1.171875 -0.546875q-1.28125 0.4375 -1.984375 0.28125q-0.6875 -0.171875 -0.890625 -0.28125q-0.640625 0.21875 -1.828125 -0.3125q-1.171875 -0.53125 -2.078125 -1.375q-0.90625 -0.859375 -1.109375 -1.5q-0.21875 -0.4375 -0.28125 -1.125q-0.046875 -0.6875 -0.046875 -0.6875q0.109375 -0.640625 1.59375 -1.21875q1.5 -0.59375 3.890625 -1.015625q2.40625 -0.4375 5.234375 -0.59375q2.828125 -0.171875 5.5 0.046875q2.765625 0.21875 5.21875 1.1875q2.453125 0.953125 5.34375 2.015625q3.40625 1.28125 7.187504 4.4375q3.796875 3.140625 6.9375 7.40625q3.140625 4.265625 4.21875 8.953125q0.3125 1.28125 0.625 3.625q0.328125 2.34375 0.375 4.53125q0.0625 2.1875 -0.46875 2.828125q-0.21875 0.421875 -0.28125 1.015625q-0.046875 0.578125 0.390625 0.796875q-0.109375 0.328125 -0.75 2.40625q-0.640625 2.078125 -1.171875 3.5625q-0.21875 2.78125 -1.28125 5.765625q-1.0625 2.984375 -2.34375 5.609375q-1.28125 2.609375 -2.359375 4.421871q-0.421875 0 -0.796875 0.15625q-0.375 0.15625 0.0625 0.265625q0 0.53125 -1.171875 2.03125q-0.4375 0.3125 -1.34375 1.546875q-0.90625 1.21875 -1.4375 1.640625q-0.109375 0.75 -0.640625 1.234375q-0.53125 0.484375 -0.953125 0.484375q0 0 -0.171875 0q-0.15625 0 -0.15625 0.421875q-0.8437538 1.28125 -2.6562538 3.046875q-1.8125 1.75 -4.109375 3.625q-2.296875 1.859375 -4.703125 3.453125q-2.390625 1.609375 -4.53125 2.453125q-1.0625 0.75 -2.234375 1.234375q-1.171875 0.484375 -2.234375 1.015625q-0.53125 0.421875 -2.359375 1.21875q-1.8125 0.796875 -3.890625 1.546875q-2.078125 0.75 -3.671875 1.0625z" fill-rule="nonzero"/><path fill="#000000" fill-opacity="0.0" d="m26.39818 -13.393192l46.267715 0l0 134.11023l-46.267715 0z" fill-rule="evenodd"/><path fill="#3c78d8" d="m67.00755 93.03805q-1.390625 0.3125 -2.296875 -0.390625q-0.90625 -0.6875 -1.328125 -1.953125q-0.859375 -2.453125 -1.234375 -5.390625q-0.359375 -2.9375 -0.15625 -5.171875l0.21875 -2.25l-4.15625 3.3125q-3.625 3.203125 -6.984375 4.59375q-3.359375 1.375 -5.921875 1.375q-1.171875 -0.203125 -2.359375 -0.84375q-1.171875 -0.640625 -2.078125 -1.59375q-0.90625 -0.96875 -1.4375 -2.03125q-0.640625 -1.5 -0.375 -4.0625q0.265625 -2.5625 1.28125 -5.59375q1.015625 -3.046875 2.5625 -5.96875q1.546875 -2.9375 3.578125 -5.171871q3.515625 -5.34375 7.5625 -6.515625q4.0625 -1.171875 8.0 1.171875q2.78125 1.171875 3.46875 1.078125q0.703125 -0.109375 1.234375 -2.46875q0.421875 -1.703125 0.84375 -3.453125q0.4375 -1.765625 1.390625 -4.75q2.671875 -8.109375 4.640625 -12.6875q1.96875 -4.59375 3.578125 -8.0q1.171875 -2.453125 1.96875 -3.03125q0.796875 -0.59375 1.65625 -0.5q1.171875 0 2.125 0.859375q0.96875 0.859375 1.5 2.34375q0.421875 0.96875 0.359375 1.65625q-0.046875 0.6875 -0.6875 1.859375q-1.375 2.5625 -3.25 6.78125q-1.859375 4.203125 -3.734375 9.21875q-1.859375 5.015625 -3.46875 9.921875q-1.59375 4.90625 -2.65625 8.640621q-0.640625 2.34375 -1.125 5.96875q-0.484375 3.625 -0.8125 7.421875q-0.3125 3.78125 -0.359375 6.71875q-0.046875 2.921875 0.15625 3.78125q0.640625 2.140625 0.578125 3.203125q-0.046875 1.0625 -0.578125 1.4375q-0.53125 0.375 -1.703125 0.484375zm-18.03125 -11.84375q1.5 -0.3125 2.9375 -1.171875q1.4375 -0.859375 3.046875 -2.03125q3.1875 -2.453125 5.53125 -4.46875q2.359375 -2.03125 3.109375 -6.1875q0.203125 -2.03125 -0.390625 -3.25q-0.578125 -1.2343712 -1.859375 -2.2968712q-1.28125 -0.859375 -3.46875 -0.6875q-2.1875 0.15625 -4.53125 2.28125q-2.5625 2.3437462 -4.96875 6.296871q-2.390625 3.9375 -3.5625 9.703125q-0.203125 1.0625 0.640625 1.703125q0.859375 0.640625 3.515625 0.109375z" fill-rule="nonzero"/></g></svg>